<svg xmlns="http://www.w3.org/2000/svg" width="50" height="50" fill="#000" viewBox="0 0 50 50"><path d="M 6.6679688 4 C 5.2057125 4 4 5.2057125 4 6.6679688 L 4 43.332031 C 4 44.794288 5.2057125 46 6.6679688 46 L 43.332031 46 C 44.794288 46 46 44.795836 46 43.333984 L 46 6.6679688 C 46 5.2057125 44.795836 4 43.333984 4 L 6.6679688 4 z M 6.6679688 6 L 43.333984 6 C 43.704133 6 44 6.2962249 44 6.6679688 L 44 43.333984 C 44 43.704133 43.703775 44 43.332031 44 L 6.6679688 44 C 6.296225 44 6 43.703775 6 43.332031 L 6 6.6679688 C 6 6.296225 6.2962249 6 6.6679688 6 z M 11.626953 20 L 11.626953 30 L 13.408203 30 L 13.408203 26.722656 L 15.572266 26.722656 C 17.590266 26.722656 19 25.364812 19 23.382812 C 19 21.365812 17.638438 20 15.648438 20 L 11.626953 20 z M 21 20 L 21 29.875 L 22.802734 29.875 L 22.802734 25.611328 L 27.705078 25.611328 L 27.705078 29.875 L 29.5 29.875 L 29.5 20 L 27.705078 20 L 27.705078 24.085938 L 22.802734 24.085938 L 22.802734 20 L 21 20 z M 32 20 L 32 30 L 33.783203 30 L 33.783203 26.722656 L 35.947266 26.722656 C 37.965266 26.722656 39.375 25.364812 39.375 23.382812 C 39.375 21.365812 38.014437 20 36.023438 20 L 32 20 z M 13.408203 21.496094 L 15.177734 21.496094 C 16.462734 21.496094 17.1875 22.154859 17.1875 23.380859 C 17.1875 24.573859 16.441922 25.238281 15.169922 25.238281 L 13.408203 25.238281 L 13.408203 21.496094 z M 33.783203 21.496094 L 35.552734 21.496094 C 36.837734 21.496094 37.564453 22.154859 37.564453 23.380859 C 37.564453 24.573859 36.818875 25.238281 35.546875 25.238281 L 33.783203 25.238281 L 33.783203 21.496094 z"/></svg>