<svg xmlns="http://www.w3.org/2000/svg" width="1246" height="334" fill="none" viewBox="0 0 1246 334"><path fill="#004643" d="M181.944 97.875C162.368 97.875 144.768 85.125 117.432 85.125C104.961 85.125 94.202 87.7077 85.2698 91.1685C86.1551 88.5113 86.4464 85.6922 86.1233 82.9101C85.0814 73.7994 77.5509 66.6351 68.4004 66.0415C57.2605 65.3187 48 74.1405 48 85.125C48 92.2029 51.8477 98.3778 57.5625 101.685V263.625C57.5625 267.146 60.4165 270 63.9375 270H70.3125C73.8335 270 76.6875 267.146 76.6875 263.625V230.378C91.7759 223.494 105.08 219 127.618 219C147.194 219 164.794 231.75 192.13 231.75C215.431 231.75 232.76 222.739 243.349 215.82C248.751 212.291 252 206.27 252 199.817V104.225C252 90.4952 237.95 81.208 225.343 86.647C211.038 92.8184 196.076 97.875 181.944 97.875ZM232.875 199.875C224.196 206.016 208.64 212.625 192.13 212.625C168.246 212.625 151.489 199.875 127.618 199.875C110.342 199.875 89.2172 203.622 76.6875 209.438V117C85.3671 110.859 100.922 104.25 117.432 104.25C141.316 104.25 158.074 117 181.944 117C199.185 117 220.322 110.081 232.875 104.25V199.875Z"/><path fill="#000" d="M421.297 97.9219V186.892C421.297 201.674 416.658 213.363 407.381 221.96C398.165 230.557 385.548 234.855 369.529 234.855C353.758 234.855 341.233 230.681 331.956 222.331C322.679 213.981 317.947 202.508 317.762 187.912V97.9219H345.594V187.077C345.594 195.922 347.697 202.385 351.902 206.467C356.17 210.487 362.046 212.497 369.529 212.497C385.177 212.497 393.125 204.271 393.372 187.819V97.9219H421.297ZM532.718 183.737C532.718 199.2 529.192 211.6 522.142 220.939C515.153 230.217 505.69 234.855 493.753 234.855C483.61 234.855 475.415 231.33 469.168 224.279V271.594H442.356V132.619H467.22L468.147 142.453C474.642 134.66 483.115 130.764 493.567 130.764C505.937 130.764 515.555 135.34 522.42 144.494C529.285 153.648 532.718 166.265 532.718 182.346V183.737ZM505.906 181.789C505.906 172.45 504.236 165.244 500.896 160.173C497.618 155.101 492.825 152.565 486.517 152.565C478.105 152.565 472.322 155.782 469.168 162.214V203.312C472.446 209.93 478.291 213.239 486.702 213.239C499.505 213.239 505.906 202.756 505.906 181.789ZM621.224 197.561C621.224 192.303 619.368 188.283 615.657 185.5C611.946 182.655 605.267 179.686 595.618 176.594C585.97 173.439 578.331 170.347 572.703 167.316C557.365 159.029 549.695 147.865 549.695 133.825C549.695 126.527 551.736 120.033 555.818 114.343C559.962 108.591 565.869 104.107 573.538 100.891C581.269 97.6745 589.928 96.0664 599.515 96.0664C609.163 96.0664 617.76 97.8291 625.306 101.354C632.851 104.818 638.696 109.735 642.84 116.105C647.046 122.476 649.148 129.712 649.148 137.814H621.316C621.316 131.63 619.368 126.836 615.472 123.435C611.575 119.971 606.102 118.239 599.051 118.239C592.247 118.239 586.959 119.693 583.187 122.6C579.414 125.445 577.527 129.217 577.527 133.918C577.527 138.309 579.723 141.989 584.114 144.958C588.567 147.927 595.092 150.71 603.689 153.308C619.523 158.07 631.058 163.977 638.294 171.027C645.53 178.078 649.148 186.861 649.148 197.375C649.148 209.064 644.726 218.249 635.882 224.929C627.037 231.547 615.132 234.855 600.164 234.855C589.773 234.855 580.311 232.969 571.775 229.196C563.24 225.362 556.715 220.135 552.2 213.518C547.747 206.9 545.521 199.23 545.521 190.51H573.445C573.445 205.415 582.352 212.868 600.164 212.868C606.782 212.868 611.946 211.538 615.657 208.879C619.368 206.158 621.224 202.385 621.224 197.561ZM698.411 107.941V132.619H715.574V152.287H698.411V202.385C698.411 206.096 699.122 208.755 700.545 210.363C701.967 211.971 704.689 212.775 708.709 212.775C711.678 212.775 714.306 212.559 716.595 212.126V232.443C711.338 234.051 705.926 234.855 700.359 234.855C681.557 234.855 671.971 225.362 671.6 206.374V152.287H656.941V132.619H671.6V107.941H698.411ZM788.68 233C787.443 230.588 786.546 227.588 785.989 224.001C779.495 231.237 771.053 234.855 760.662 234.855C750.828 234.855 742.664 232.01 736.17 226.32C729.738 220.63 726.521 213.456 726.521 204.797C726.521 194.159 730.449 185.995 738.304 180.305C746.22 174.615 757.632 171.739 772.537 171.677H784.876V165.925C784.876 161.286 783.67 157.575 781.258 154.792C778.908 152.009 775.166 150.617 770.032 150.617C765.517 150.617 761.961 151.7 759.363 153.864C756.827 156.029 755.56 158.998 755.56 162.771H728.748C728.748 156.957 730.542 151.576 734.129 146.628C737.716 141.68 742.788 137.814 749.344 135.031C755.9 132.186 763.26 130.764 771.424 130.764C783.794 130.764 793.597 133.887 800.833 140.134C808.131 146.319 811.78 155.039 811.78 166.296V209.807C811.842 219.331 813.172 226.537 815.77 231.423V233H788.68ZM766.507 214.353C770.465 214.353 774.114 213.487 777.454 211.755C780.794 209.961 783.268 207.58 784.876 204.611V187.355H774.856C761.435 187.355 754.292 191.994 753.426 201.271L753.333 202.849C753.333 206.188 754.508 208.941 756.858 211.105C759.209 213.27 762.425 214.353 766.507 214.353ZM857.518 132.619L858.353 143.845C865.465 135.124 875.083 130.764 887.205 130.764C900.132 130.764 909.007 135.866 913.831 146.071C920.882 135.866 930.932 130.764 943.982 130.764C954.868 130.764 962.97 133.949 968.289 140.319C973.608 146.628 976.268 156.153 976.268 168.894V233H949.363V168.986C949.363 163.296 948.25 159.152 946.023 156.555C943.797 153.895 939.869 152.565 934.241 152.565C926.201 152.565 920.634 156.4 917.542 164.069L917.635 233H890.823V169.079C890.823 163.265 889.679 159.06 887.391 156.462C885.102 153.864 881.206 152.565 875.701 152.565C868.094 152.565 862.589 155.72 859.188 162.028V233H832.376V132.619H857.518ZM1087.32 183.737C1087.32 199.2 1083.79 211.6 1076.74 220.939C1069.75 230.217 1060.29 234.855 1048.35 234.855C1038.21 234.855 1030.01 231.33 1023.77 224.279V271.594H996.956V132.619H1021.82L1022.75 142.453C1029.24 134.66 1037.71 130.764 1048.17 130.764C1060.54 130.764 1070.15 135.34 1077.02 144.494C1083.88 153.648 1087.32 166.265 1087.32 182.346V183.737ZM1060.51 181.789C1060.51 172.45 1058.84 165.244 1055.5 160.173C1052.22 155.101 1047.42 152.565 1041.12 152.565C1032.7 152.565 1026.92 155.782 1023.77 162.214V203.312C1027.05 209.93 1032.89 213.239 1041.3 213.239C1054.1 213.239 1060.51 202.756 1060.51 181.789ZM1158.38 205.261C1158.38 201.983 1156.74 199.416 1153.46 197.561C1150.25 195.643 1145.05 193.942 1137.88 192.458C1114.01 187.448 1102.07 177.305 1102.07 162.028C1102.07 153.122 1105.75 145.7 1113.11 139.763C1120.53 133.763 1130.21 130.764 1142.15 130.764C1154.89 130.764 1165.06 133.763 1172.67 139.763C1180.34 145.762 1184.17 153.555 1184.17 163.142H1157.36C1157.36 159.307 1156.12 156.153 1153.65 153.679C1151.18 151.143 1147.31 149.875 1142.05 149.875C1137.54 149.875 1134.04 150.896 1131.57 152.937C1129.1 154.978 1127.86 157.575 1127.86 160.729C1127.86 163.698 1129.25 166.11 1132.03 167.966C1134.88 169.759 1139.64 171.337 1146.32 172.697C1153 173.996 1158.63 175.48 1163.21 177.15C1177.37 182.346 1184.45 191.345 1184.45 204.147C1184.45 213.301 1180.52 220.723 1172.67 226.413C1164.81 232.041 1154.67 234.855 1142.24 234.855C1133.83 234.855 1126.34 233.371 1119.79 230.402C1113.29 227.372 1108.19 223.259 1104.48 218.063C1100.77 212.806 1098.91 207.147 1098.91 201.086H1124.33C1124.58 205.848 1126.34 209.497 1129.62 212.033C1132.9 214.569 1137.29 215.837 1142.8 215.837C1147.93 215.837 1151.79 214.878 1154.39 212.961C1157.05 210.982 1158.38 208.415 1158.38 205.261Z"/></svg>